<?xml version="1.0" encoding="UTF-8"?>
<svg id="Layer_2" data-name="Layer 2" xmlns="http://www.w3.org/2000/svg" viewBox="0 0 547.3 167.88">
  <defs>
    <style>
      .cls-1 {
        fill: #fefefe;
      }

      .cls-1, .cls-2, .cls-3, .cls-4 {
        stroke-width: 0px;
      }

<!-- primry -->
      .cls-2 {
        fill: #080808;  
      }

      .cls-2, .cls-4 {
        fill-rule: evenodd;
      }

      .cls-3, .cls-4 {
        fill: #00baff;
      }
    </style>
  </defs>
  <g id="_3" data-name="3">
    <g>
      <path class="cls-2" d="m418.69,10.18v147.51c0,5.62-6.23,10.19-13.89,10.19H13.89c-7.66,0-13.89-4.57-13.89-10.19v-54.29h.12c10.75,0,19.46-8.71,19.46-19.46S10.87,64.47.12,64.47h-.12V10.18C0,4.56,6.23,0,13.89,0h390.91c7.66,0,13.89,4.56,13.89,10.18Z"/>
      <path class="cls-4" d="m533.41,0h-100.84c-7.66,0-13.89,4.57-13.89,10.19v147.51c0,5.62,6.22,10.19,13.89,10.19h100.84c7.66,0,13.89-4.57,13.89-10.19V10.19c0-5.62-6.22-10.19-13.89-10.19h0Z"/>
      <path class="cls-2" d="m470.86,22.07v6.05h37.59v-6.05h-37.59Zm-6.85,120.32c-2.98,0-4.47.91-4.47,2.69s1.49,2.74,4.47,2.74,4.51-.91,4.51-2.74-1.48-2.69-4.51-2.69Zm2.81,3.89c-.53.29-1.49.43-2.81.43s-2.29-.14-2.82-.43c-.53-.29-.8-.67-.8-1.2s.27-.91.8-1.2c.53-.24,1.49-.39,2.82-.39s2.28.15,2.81.39c.53.29.8.67.8,1.2s-.27.91-.8,1.2Zm-2.81-10.37c-2.98,0-4.47.91-4.47,2.74s1.49,2.69,4.47,2.69,4.51-.92,4.51-2.69-1.48-2.74-4.51-2.74Zm2.81,3.94c-.53.24-1.49.38-2.81.38s-2.29-.14-2.82-.38c-.53-.29-.8-.68-.8-1.2s.27-.96.8-1.2c.53-.29,1.49-.44,2.82-.44s2.28.15,2.81.44c.53.24.8.67.8,1.2s-.27.91-.8,1.2Zm-2.81-10.38c-2.98,0-4.47.87-4.47,2.69s1.49,2.69,4.47,2.69,4.51-.86,4.51-2.69-1.48-2.69-4.51-2.69Zm2.81,3.89c-.53.29-1.49.39-2.81.39s-2.29-.1-2.82-.39c-.53-.28-.8-.67-.8-1.2s.27-.91.8-1.2c.53-.24,1.49-.38,2.82-.38s2.28.14,2.81.38c.53.29.8.68.8,1.2s-.27.92-.8,1.2Zm-2.81-10.37c-2.98,0-4.47.92-4.47,2.69s1.49,2.74,4.47,2.74,4.51-.91,4.51-2.74-1.48-2.69-4.51-2.69Zm2.81,3.89c-.53.29-1.49.43-2.81.43s-2.29-.14-2.82-.43c-.53-.24-.8-.67-.8-1.2s.27-.91.8-1.15c.53-.29,1.49-.43,2.82-.43s2.28.14,2.81.43c.53.24.8.62.8,1.15s-.27.96-.8,1.2Zm-2.81-10.37c-2.98,0-4.47.92-4.47,2.74s1.49,2.69,4.47,2.69,4.51-.92,4.51-2.69-1.48-2.74-4.51-2.74Zm2.81,3.94c-.53.24-1.49.38-2.81.38s-2.29-.14-2.82-.38c-.53-.29-.8-.67-.8-1.2s.27-.91.8-1.2,1.49-.43,2.82-.43,2.28.14,2.81.43c.53.29.8.67.8,1.2s-.27.91-.8,1.2Zm-2.81-10.37c-2.98,0-4.47.91-4.47,2.69s1.49,2.73,4.47,2.73,4.51-.91,4.51-2.73-1.48-2.69-4.51-2.69Zm2.81,3.89c-.53.29-1.49.43-2.81.43s-2.29-.14-2.82-.43c-.53-.29-.8-.68-.8-1.2s.27-.91.8-1.2c.53-.24,1.49-.39,2.82-.39s2.28.15,2.81.39c.53.29.8.67.8,1.2s-.27.91-.8,1.2Zm-2.81-10.37c-2.98,0-4.47.91-4.47,2.73s1.49,2.69,4.47,2.69,4.51-.91,4.51-2.69-1.48-2.73-4.51-2.73Zm2.81,3.88c-.53.29-1.49.44-2.81.44s-2.29-.15-2.82-.44c-.53-.23-.8-.67-.8-1.15,0-.53.27-.96.8-1.2.53-.29,1.49-.43,2.82-.43s2.28.14,2.81.43c.53.24.8.67.8,1.2,0,.48-.27.92-.8,1.15Zm-2.81-10.32c-2.98,0-4.47.87-4.47,2.69s1.49,2.69,4.47,2.69,4.51-.86,4.51-2.69-1.48-2.69-4.51-2.69Zm2.81,3.89c-.53.29-1.49.39-2.81.39s-2.29-.1-2.82-.39-.8-.67-.8-1.2.27-.91.8-1.2c.53-.29,1.49-.38,2.82-.38s2.28.09,2.81.38c.53.29.8.67.8,1.2s-.27.91-.8,1.2Zm-2.81-10.37c-2.98,0-4.47.91-4.47,2.69s1.49,2.74,4.47,2.74,4.51-.91,4.51-2.74-1.48-2.69-4.51-2.69Zm2.81,3.89c-.53.29-1.49.43-2.81.43s-2.29-.14-2.82-.43c-.53-.24-.8-.67-.8-1.2s.27-.91.8-1.15c.53-.29,1.49-.44,2.82-.44s2.28.15,2.81.44c.53.24.8.62.8,1.15s-.27.96-.8,1.2Zm-2.81-10.37c-2.98,0-4.47.91-4.47,2.74s1.49,2.68,4.47,2.68,4.51-.91,4.51-2.68-1.48-2.74-4.51-2.74Zm2.81,3.94c-.53.24-1.49.38-2.81.38s-2.29-.14-2.82-.38c-.53-.29-.8-.68-.8-1.2s.27-.92.8-1.2c.53-.29,1.49-.44,2.82-.44s2.28.15,2.81.44c.53.28.8.67.8,1.2s-.27.91-.8,1.2Zm-2.81-10.37c-2.98,0-4.47.86-4.47,2.68s1.49,2.74,4.47,2.74,4.51-.91,4.51-2.74-1.48-2.68-4.51-2.68Zm2.81,3.88c-.53.29-1.49.44-2.81.44s-2.29-.15-2.82-.44c-.53-.28-.8-.67-.8-1.2s.27-.91.8-1.2c.53-.24,1.49-.38,2.82-.38s2.28.14,2.81.38c.53.29.8.68.8,1.2s-.27.92-.8,1.2Zm-2.81-10.37c-2.98,0-4.47.92-4.47,2.69s1.49,2.74,4.47,2.74,4.51-.91,4.51-2.74-1.48-2.69-4.51-2.69Zm2.81,3.89c-.53.29-1.49.43-2.81.43s-2.29-.14-2.82-.43c-.53-.24-.8-.67-.8-1.2,0-.48.27-.91.8-1.15.53-.29,1.49-.43,2.82-.43s2.28.14,2.81.43c.53.24.8.67.8,1.15,0,.53-.27.96-.8,1.2Zm-2.81-10.37c-2.98,0-4.47.92-4.47,2.74s1.49,2.69,4.47,2.69,4.51-.87,4.51-2.69-1.48-2.74-4.51-2.74Zm2.81,3.94c-.53.24-1.49.38-2.81.38s-2.29-.14-2.82-.38c-.53-.29-.8-.67-.8-1.2s.27-.91.8-1.2c.53-.29,1.49-.39,2.82-.39s2.28.1,2.81.39c.53.29.8.67.8,1.2s-.27.91-.8,1.2Zm-2.81-10.37c-2.98,0-4.47.91-4.47,2.69s1.49,2.73,4.47,2.73,4.51-.91,4.51-2.73-1.48-2.69-4.51-2.69Zm2.81,3.89c-.53.29-1.49.43-2.81.43s-2.29-.14-2.82-.43c-.53-.24-.8-.67-.8-1.2s.27-.92.8-1.2c.53-.24,1.49-.39,2.82-.39s2.28.15,2.81.39c.53.28.8.67.8,1.2s-.27.96-.8,1.2Zm-2.81-10.37c-2.98,0-4.47.91-4.47,2.73s1.49,2.69,4.47,2.69,4.51-.91,4.51-2.69-1.48-2.73-4.51-2.73Zm2.81,3.93c-.53.25-1.49.39-2.81.39s-2.29-.14-2.82-.39c-.53-.28-.8-.67-.8-1.2s.27-.91.8-1.2c.53-.28,1.49-.43,2.82-.43s2.28.15,2.81.43c.53.24.8.67.8,1.2s-.27.92-.8,1.2Zm-2.81-10.37c-2.98,0-4.47.87-4.47,2.69s1.49,2.74,4.47,2.74,4.51-.91,4.51-2.74-1.48-2.69-4.51-2.69Zm2.81,3.89c-.53.29-1.49.39-2.81.39s-2.29-.1-2.82-.39c-.53-.28-.8-.67-.8-1.2s.27-.91.8-1.2c.53-.24,1.49-.38,2.82-.38s2.28.14,2.81.38c.53.29.8.67.8,1.2s-.27.92-.8,1.2Zm-7.12-9.7v1.16h1.22v-1.16h-1.22Zm7.6-8.4c-.85-.77-1.91-1.15-3.29-1.15s-2.4.38-3.25,1.15c-.79.72-1.22,1.68-1.22,2.83s.43,2.16,1.22,2.88c.85.73,1.92,1.11,3.25,1.11s2.44-.38,3.29-1.11c.8-.72,1.22-1.68,1.22-2.88s-.42-2.11-1.22-2.83Zm-.69,4.9c-.64.53-1.49.77-2.6.77s-1.97-.24-2.56-.77c-.63-.53-.95-1.25-.95-2.07s.32-1.49.95-2.01c.59-.53,1.49-.82,2.56-.82s1.96.29,2.6.82c.64.52.9,1.2.9,2.06s-.26,1.49-.9,2.02Zm1.75-14.02h-8.66v1.01h6.86l-6.86,4.37v1.15h8.66v-1.06h-6.85l6.85-4.37v-1.1Zm2.5,104.76v1.54h37.59v-1.54h-37.59Zm0,14.36v3.74h37.59v-3.74h-37.59Zm0,5.28v1.49h37.59v-1.49h-37.59Zm0-17.33v2.26h37.59v-2.26h-37.59Zm0,10.51v.77h37.59v-.77h-37.59Zm0-28.61v2.25h37.59v-2.25h-37.59Zm0,21.84v5.28h37.59v-5.28h-37.59Zm0-13.58v6.05h37.59v-6.05h-37.59Zm0-21.08v7.53h37.59v-7.53h-37.59Zm0-36.2v1.49h37.59v-1.49h-37.59Zm0,55.79v.76h37.59v-.76h-37.59Zm0-27.9v1.49h37.59v-1.49h-37.59Zm0,4.51v2.26h37.59v-2.26h-37.59Zm0-42.2v.72h37.59v-.72h-37.59Zm0-6.82v2.26h37.59v-2.26h-37.59Zm0-12.82v.77h37.59v-.77h-37.59Zm0-2.25v1.49h37.59v-1.49h-37.59Zm0,20.36v.76h37.59v-.76h-37.59Zm0,63.33v1.53h37.59v-1.53h-37.59Zm0-6.78v1.49h37.59v-1.49h-37.59Zm0-42.97v1.49h37.59v-1.49h-37.59Zm0,10.57v2.25h37.59v-2.25h-37.59Zm0-1.54v.77h37.59v-.77h-37.59Zm0,4.56v2.26h37.59v-2.26h-37.59Zm0,8.26v1.54h37.59v-1.54h-37.59Zm0-4.52v3.03h37.59v-3.03h-37.59Zm0-13.58v4.56h37.59v-4.56h-37.59Zm0-14.31v6.77h37.59v-6.77h-37.59Zm0-24.87v.72h37.59v-.72h-37.59Zm0,19.59v1.49h37.59v-1.49h-37.59Zm0-5.28v1.49h37.59v-1.49h-37.59Zm0-8.31v6.82h37.59v-6.82h-37.59Z"/>
      <path class="cls-1" d="m418.69,158.14v1.59h.54v-1.59h-.54Zm0-3.26v1.66h.54v-1.66h-.54Zm0-3.25v1.65h.54v-1.65h-.54Zm0-3.2v1.6h.54v-1.6h-.54Zm0-3.26v1.6h.54v-1.6h-.54Zm0-3.25v1.6h.54v-1.6h-.54Zm0-3.26v1.6h.54v-1.6h-.54Zm0-3.25v1.66h.54v-1.66h-.54Zm0-3.25v1.65h.54v-1.65h-.54Zm0-3.2v1.6h.54v-1.6h-.54Zm0-3.25v1.6h.54v-1.6h-.54Zm0-3.26v1.6h.54v-1.6h-.54Zm0-3.25v1.65h.54v-1.65h-.54Zm0-3.25v1.65h.54v-1.65h-.54Zm0-3.26v1.66h.54v-1.66h-.54Zm0-3.19v1.59h.54v-1.59h-.54Zm0-3.26v1.6h.54v-1.6h-.54Zm0-3.26v1.61h.54v-1.61h-.54Zm0-3.25v1.66h.54v-1.66h-.54Zm0-3.25v1.65h.54v-1.65h-.54Zm0-3.26v1.66h.54v-1.66h-.54Zm0-3.2v1.6h.54v-1.6h-.54Zm0-3.25v1.6h.54v-1.6h-.54Zm0-3.25v1.6h.54v-1.6h-.54Zm0-3.25v1.65h.54v-1.65h-.54Zm0-3.26v1.66h.54v-1.66h-.54Zm0-3.2v1.6h.54v-1.6h-.54Zm0-3.25v1.6h.54v-1.6h-.54Zm0-3.25v1.6h.54v-1.6h-.54Zm0-3.26v1.6h.54v-1.6h-.54Zm0-3.25v1.65h.54v-1.65h-.54Zm0-3.26v1.66h.54v-1.66h-.54Zm0-3.2v1.6h.54v-1.6h-.54Zm0-3.25v1.6h.54v-1.6h-.54Zm0-3.25v1.6h.54v-1.6h-.54Zm0-3.26v1.66h.54v-1.66h-.54Zm0-3.25v1.66h.54v-1.66h-.54Zm0-3.25v1.65h.54v-1.65h-.54Zm0-3.2v1.6h.54v-1.6h-.54Zm0-3.25v1.6h.54v-1.6h-.54Zm0-3.26v1.6h.54v-1.6h-.54Zm0-3.25v1.65h.54v-1.65h-.54Zm0-3.26v1.66h.54v-1.66h-.54Zm0-3.25v1.65h.54v-1.65h-.54Zm0-3.2v1.6h.54v-1.6h-.54Zm0-3.25v1.6h.54v-1.6h-.54Zm0-3.26v1.6h.54v-1.6h-.54Z"/>
    </g>
    <g>
      <path class="cls-3" d="m145.27,122.48h-6.5v13.76h6.5c4.56,0,7.68-2.65,7.68-6.88s-3.12-6.88-7.68-6.88Zm-.16,10.65h-2.46v-7.55h2.46c2.34,0,3.91,1.4,3.91,3.77s-1.57,3.77-3.91,3.77Z"/>
      <path class="cls-3" d="m160.01,125.41c-3.36,0-5.86,2.28-5.86,5.48s2.46,5.52,6.25,5.52c2.02,0,3.52-.59,4.54-1.73l-1.96-2.04c-.73.63-1.42.92-2.46.92-1.38,0-2.3-.63-2.61-1.71h7.74c.02-.29.06-.65.06-.92,0-3.52-2.55-5.52-5.7-5.52Zm-2.16,4.48c.22-1.12,1.02-1.83,2.18-1.83s1.98.71,2.18,1.83h-4.36Z"/>
      <rect class="cls-3" x="167.44" y="121.65" width="3.73" height="14.58"/>
      <path class="cls-3" d="m178.78,125.41c-3.36,0-5.86,2.28-5.86,5.48s2.46,5.52,6.25,5.52c2.02,0,3.52-.59,4.54-1.73l-1.96-2.04c-.73.63-1.42.92-2.46.92-1.38,0-2.3-.63-2.61-1.71h7.74c.02-.29.06-.65.06-.92,0-3.52-2.55-5.52-5.7-5.52Zm-2.16,4.48c.22-1.12,1.02-1.83,2.18-1.83s1.98.71,2.18,1.83h-4.36Z"/>
      <path class="cls-3" d="m194.11,126.88c-.73-1-1.87-1.47-3.34-1.47-2.83,0-5.23,2-5.23,5.13s2.4,5.15,5.23,5.15c1.36,0,2.44-.41,3.16-1.26v.35c0,1.67-.85,2.57-2.85,2.57-1.26,0-2.71-.43-3.6-1.14l-1.36,2.61c1.3.92,3.24,1.39,5.29,1.39,3.97,0,6.25-1.91,6.25-5.93v-8.71h-3.56v1.3Zm-2.46,5.84c-1.34,0-2.34-.88-2.34-2.18s1-2.16,2.34-2.16,2.32.86,2.32,2.16-.98,2.18-2.32,2.18Z"/>
      <path class="cls-3" d="m204.6,125.41c-1.67,0-3.48.43-4.7,1.24l1.26,2.54c.73-.57,1.87-.92,2.89-.92,1.47,0,2.2.61,2.26,1.69h-2.12c-3.3,0-4.74,1.22-4.74,3.18,0,1.85,1.42,3.28,3.97,3.28,1.55,0,2.61-.53,3.14-1.55v1.38h3.48v-5.92c0-3.38-1.98-4.91-5.44-4.91Zm1.71,7.41c-.29.85-1.02,1.24-1.85,1.24-.88,0-1.4-.45-1.4-1.08s.43-1.08,1.63-1.08h1.61v.92Z"/>
      <path class="cls-3" d="m217.69,133.53c-.67,0-1.12-.43-1.12-1.22v-3.54h2.44v-2.79h-2.44v-2.77h-3.73v2.77h-1.55v2.79h1.55v3.58c0,2.73,1.59,4.07,4.32,4.07.98,0,1.95-.2,2.59-.61l-.92-2.61c-.31.22-.73.33-1.14.33Z"/>
      <path class="cls-3" d="m226.06,125.41c-3.36,0-5.86,2.28-5.86,5.48s2.46,5.52,6.25,5.52c2.02,0,3.52-.59,4.54-1.73l-1.96-2.04c-.73.63-1.42.92-2.46.92-1.38,0-2.3-.63-2.61-1.71h7.74c.02-.29.06-.65.06-.92,0-3.52-2.55-5.52-5.7-5.52Zm-2.16,4.48c.22-1.12,1.02-1.83,2.18-1.83s1.98.71,2.18,1.83h-4.36Z"/>
      <path class="cls-3" d="m245.68,122.48h-6.29v13.76h3.89v-3.6h2.4c3.75,0,6.11-1.95,6.11-5.07s-2.36-5.09-6.11-5.09Zm-.24,7.09h-2.16v-4.03h2.16c1.61,0,2.42.75,2.42,2.02s-.81,2-2.42,2Z"/>
      <path class="cls-3" d="m257.94,125.41c-1.67,0-3.48.43-4.7,1.24l1.26,2.54c.73-.57,1.87-.92,2.89-.92,1.47,0,2.2.61,2.26,1.69h-2.12c-3.3,0-4.74,1.22-4.74,3.18,0,1.85,1.42,3.28,3.97,3.28,1.55,0,2.61-.53,3.14-1.55v1.38h3.48v-5.92c0-3.38-1.99-4.91-5.44-4.91Zm1.71,7.41c-.29.85-1.02,1.24-1.85,1.24-.88,0-1.4-.45-1.4-1.08s.43-1.08,1.63-1.08h1.61v.92Z"/>
      <path class="cls-3" d="m268.61,128.81c0-.39.45-.75,1.71-.75.94,0,2,.2,3.07.79l1.12-2.54c-1.06-.59-2.71-.9-4.21-.9-3.34,0-5.19,1.53-5.19,3.54,0,4.26,6.29,2.63,6.29,4.07,0,.45-.41.73-1.67.73s-2.73-.37-3.71-.98l-1.12,2.55c1.04.65,2.91,1.1,4.72,1.1,3.46,0,5.27-1.53,5.27-3.5,0-4.23-6.27-2.63-6.27-4.11Z"/>
      <path class="cls-3" d="m279.36,128.81c0-.39.45-.75,1.71-.75.94,0,2,.2,3.07.79l1.12-2.54c-1.06-.59-2.71-.9-4.21-.9-3.34,0-5.19,1.53-5.19,3.54,0,4.26,6.29,2.63,6.29,4.07,0,.45-.41.73-1.67.73s-2.73-.37-3.71-.98l-1.12,2.55c1.04.65,2.91,1.1,4.72,1.1,3.46,0,5.27-1.53,5.27-3.5,0-4.23-6.27-2.63-6.27-4.11Z"/>
    </g>
  </g>
</svg>